<svg width="22" height="30" viewBox="0 0 22 30" fill="none" xmlns="http://www.w3.org/2000/svg">
<path d="M0.586239 13.3005C0.21087 12.8986 0 12.3537 0 11.7854C0 11.2172 0.21087 10.6723 0.586239 10.2704L9.59648 0.627411C9.97196 0.225681 10.4812 1.90735e-06 11.0121 1.90735e-06C11.543 1.90735e-06 12.0522 0.225681 12.4277 0.627411L21.4379 10.2704C21.8027 10.6746 22.0045 11.2159 21.9999 11.7777C21.9954 12.3396 21.7848 12.877 21.4135 13.2744C21.0423 13.6717 20.5401 13.897 20.0151 13.9019C19.4901 13.9068 18.9844 13.6908 18.6067 13.3005L13.0144 7.49966L13.0144 27.8571C13.0144 28.4254 12.8034 28.9705 12.4279 29.3724C12.0524 29.7742 11.5431 30 11.0121 30C10.4811 30 9.97177 29.7742 9.59627 29.3724C9.22077 28.9705 9.00981 28.4254 9.00981 27.8571L9.00981 7.49966L3.41746 13.3005C3.04197 13.7022 2.53278 13.9279 2.00185 13.9279C1.47092 13.9279 0.961721 13.7022 0.586239 13.3005Z" fill="white"/>
</svg>
