<svg width="17" height="23" viewBox="0 0 17 23" fill="none" xmlns="http://www.w3.org/2000/svg">
<g clip-path="url(#clip0_449_263)">
<path d="M8.5 13.0198C7.7645 13.0198 7.04552 12.797 6.43398 12.3795C5.82243 11.962 5.34579 11.3687 5.06432 10.6744C4.78286 9.98019 4.70922 9.21627 4.85271 8.47927C4.9962 7.74227 5.35037 7.06529 5.87045 6.53395C6.39053 6.0026 7.05314 5.64075 7.77451 5.49415C8.49588 5.34755 9.24359 5.42279 9.92311 5.71035C10.6026 5.99792 11.1834 6.48489 11.592 7.10969C12.0007 7.73448 12.2188 8.46905 12.2188 9.22049C12.2176 10.2278 11.8254 11.1934 11.1283 11.9057C10.4311 12.6179 9.48591 13.0186 8.5 13.0198ZM8.5 6.94088C8.0587 6.94088 7.62731 7.07458 7.26039 7.32506C6.89346 7.57555 6.60747 7.93158 6.4386 8.34812C6.26972 8.76466 6.22553 9.22302 6.31162 9.66522C6.39772 10.1074 6.61022 10.5136 6.92227 10.8324C7.23432 11.1512 7.63189 11.3683 8.06471 11.4563C8.49753 11.5442 8.94616 11.4991 9.35386 11.3266C9.76157 11.154 10.11 10.8618 10.3552 10.487C10.6004 10.1121 10.7313 9.67135 10.7313 9.22049C10.7307 8.61608 10.4954 8.03661 10.0771 7.60923C9.65877 7.18185 9.09159 6.94148 8.5 6.94088Z" fill="#C00503"/>
<path d="M8.49961 22.1381L2.22534 14.5782C2.13816 14.4647 2.05188 14.3505 1.96651 14.2355C0.895297 12.7928 0.31637 11.0312 0.318365 9.22037C0.318365 7.00354 1.18032 4.87751 2.7146 3.30998C4.24888 1.74245 6.32981 0.861816 8.49961 0.861816C10.6694 0.861816 12.7504 1.74245 14.2846 3.30998C15.8189 4.87751 16.6809 7.00354 16.6809 9.22037C16.6826 11.0303 16.1039 12.7911 15.0335 14.2332L15.0327 14.2355C15.0327 14.2355 14.8096 14.5349 14.7761 14.5752L8.49961 22.1381ZM3.15428 13.3199C3.15428 13.3199 3.32758 13.5539 3.367 13.604L8.49961 19.7886L13.6389 13.5957C13.6717 13.5539 13.8457 13.3183 13.8464 13.3176C14.722 12.1391 15.1951 10.6999 15.1934 9.22037C15.1934 7.4066 14.4881 5.66712 13.2328 4.3846C11.9775 3.10207 10.2749 2.38155 8.49961 2.38155C6.72432 2.38155 5.02174 3.10207 3.76642 4.3846C2.5111 5.66712 1.80586 7.4066 1.80586 9.22037C1.80403 10.7008 2.27773 12.141 3.15428 13.3199Z" fill="#C00503"/>
</g>
<defs>
<clipPath id="clip0_449_263">
<rect width="17" height="22" fill="white" transform="translate(0 0.5)"/>
</clipPath>
</defs>
</svg>
