<svg width="21" height="17" viewBox="0 0 21 17" fill="none" xmlns="http://www.w3.org/2000/svg">
<path fill-rule="evenodd" clip-rule="evenodd" d="M20.125 0.5H0.875C0.692664 0.5 0.517795 0.570238 0.388864 0.695262C0.259933 0.820287 0.1875 0.989856 0.1875 1.16667V15.8333C0.1875 16.0101 0.259933 16.1797 0.388864 16.3047C0.517795 16.4298 0.692664 16.5 0.875 16.5H20.125C20.3073 16.5 20.4822 16.4298 20.6111 16.3047C20.7401 16.1797 20.8125 16.0101 20.8125 15.8333V1.16667C20.8125 0.989856 20.7401 0.820287 20.6111 0.695262C20.4822 0.570238 20.3073 0.5 20.125 0.5ZM1.5625 15.1667V1.83333H19.4375V15.1667H1.5625Z" fill="#C00503"/>
<path fill-rule="evenodd" clip-rule="evenodd" d="M20.5707 1.67333L10.8839 9.67334C10.7592 9.77644 10.6006 9.83296 10.4367 9.83271C10.2729 9.83247 10.1145 9.77547 9.9901 9.672L0.4256 1.672C0.319129 1.58316 0.243275 1.46483 0.208246 1.33292C0.173216 1.20102 0.180692 1.06188 0.229667 0.934221C0.278642 0.806562 0.366766 0.696513 0.48218 0.618882C0.597595 0.541251 0.734763 0.499763 0.875225 0.500001H20.1252C20.2657 0.500263 20.4026 0.542217 20.5177 0.620222C20.6328 0.698228 20.7205 0.808542 20.7691 0.936328C20.8176 1.06411 20.8246 1.20324 20.7891 1.335C20.7537 1.46676 20.6774 1.58483 20.5707 1.67333ZM18.258 1.83333H2.7246L10.4411 8.288L18.258 1.83333Z" fill="#C00503"/>
</svg>
