<svg width="22" height="23" viewBox="0 0 22 23" fill="none" xmlns="http://www.w3.org/2000/svg">
<path d="M5.0249 2.32616C4.94373 2.22175 4.84127 2.1358 4.72433 2.07402C4.60738 2.01225 4.47864 1.97606 4.34664 1.96787C4.21463 1.95967 4.0824 1.97966 3.95872 2.0265C3.83503 2.07334 3.72273 2.14596 3.62927 2.23954L2.20752 3.66266C1.5434 4.32816 1.29865 5.27004 1.58877 6.09641C2.79428 9.51619 4.75286 12.6213 7.31977 15.1824C9.88084 17.7493 12.986 19.7079 16.4058 20.9134C17.2321 21.2035 18.174 20.9588 18.8395 20.2947L20.2613 18.8729C20.3548 18.7795 20.4275 18.6672 20.4743 18.5435C20.5211 18.4198 20.5411 18.2875 20.5329 18.1555C20.5247 18.0235 20.4886 17.8948 20.4268 17.7779C20.365 17.6609 20.2791 17.5585 20.1746 17.4773L17.0025 15.0105C16.8909 14.9242 16.7611 14.8643 16.623 14.8352C16.4849 14.8061 16.342 14.8087 16.205 14.8428L13.1938 15.5949C12.7918 15.6947 12.3709 15.689 11.9717 15.5785C11.5726 15.4679 11.2087 15.2562 10.9154 14.9638L7.5384 11.5854C7.24577 11.2922 7.03379 10.9284 6.92299 10.5293C6.81218 10.1301 6.80629 9.70913 6.9059 9.30704L7.6594 6.29579C7.69344 6.15882 7.69603 6.01591 7.66698 5.8778C7.63793 5.73968 7.57799 5.60994 7.49165 5.49829L5.0249 2.32616ZM2.59115 1.20279C2.83176 0.962092 3.12084 0.775341 3.43916 0.654933C3.75749 0.534526 4.09779 0.483217 4.43747 0.504414C4.77715 0.525612 5.10843 0.61883 5.40932 0.777879C5.71021 0.936929 5.97382 1.15817 6.18265 1.42691L8.6494 4.59766C9.10177 5.17929 9.26127 5.93691 9.08252 6.65191L8.3304 9.66316C8.29178 9.81914 8.29402 9.98244 8.33689 10.1373C8.37976 10.2922 8.46182 10.4334 8.57515 10.5473L11.9535 13.9257C12.0676 14.0392 12.209 14.1214 12.3641 14.1643C12.5193 14.2072 12.6828 14.2093 12.839 14.1704L15.8489 13.4183C16.2018 13.3306 16.57 13.324 16.9257 13.399C17.2815 13.474 17.6157 13.6287 17.9031 13.8514L21.0739 16.3182C22.2138 17.205 22.3183 18.8894 21.298 19.9083L19.8763 21.33C18.8588 22.3475 17.338 22.7944 15.9204 22.2953C12.2913 21.0201 8.99664 18.9427 6.28165 16.2178C3.55691 13.5032 1.47953 10.209 0.204148 6.58041C-0.293602 5.16416 0.153273 3.64204 1.17077 2.62454L2.59115 1.20279Z" fill="#C00503"/>
</svg>
